<svg xmlns="http://www.w3.org/2000/svg" xmlns:xlink="http://www.w3.org/1999/xlink" preserveAspectRatio="xMidYMid meet" version="1.0" viewBox="536.0 615.4 1004.3 828.1" zoomAndPan="magnify" style="fill: rgb(0, 0, 0);" original_string_length="2174" width="25.02466397244716px" height="20.637870288034115px"><g id="__id3_srbyrwfbli"><path d="M 830.210938 1432.261719 L 988.234375 1274.238281 C 996.320312 1266.148438 1009.480469 1266.160156 1017.558594 1274.238281 L 1156.800781 1413.480469 C 1171.800781 1428.480469 1196.21875 1428.480469 1211.21875 1413.480469 L 1259.621094 1365.078125 C 1266.890625 1357.808594 1270.890625 1348.140625 1270.890625 1337.859375 C 1270.890625 1327.578125 1266.890625 1317.921875 1259.621094 1310.648438 L 1030.109375 1081.140625 C 1015.109375 1066.140625 990.691406 1066.140625 975.6875 1081.140625 L 727.386719 1329.441406 C 712.382812 1344.449219 712.382812 1368.859375 727.386719 1383.871094 L 775.78125 1432.261719 C 783.285156 1439.769531 793.140625 1443.519531 802.996094 1443.519531 C 812.851562 1443.519531 822.707031 1439.769531 830.210938 1432.261719 Z M 1480.628906 1324.640625 L 1529.03125 1276.238281 C 1536.300781 1268.96875 1540.300781 1259.300781 1540.300781 1249.03125 C 1540.300781 1238.75 1536.300781 1229.078125 1529.03125 1221.808594 L 1209.238281 902.019531 C 1194.230469 887.011719 1169.820312 887.011719 1154.808594 902.019531 L 1106.410156 950.421875 C 1091.410156 965.421875 1091.410156 989.839844 1106.410156 1004.839844 L 1426.210938 1324.640625 C 1433.710938 1332.140625 1443.558594 1335.890625 1453.421875 1335.890625 C 1463.269531 1335.890625 1473.128906 1332.140625 1480.628906 1324.640625 Z M 622.890625 1263.429688 C 612.613281 1263.429688 602.949219 1259.429688 595.679688 1252.160156 L 547.28125 1203.761719 C 540.011719 1196.488281 536.011719 1186.828125 536.011719 1176.550781 C 536.011719 1166.269531 540.011719 1156.609375 547.28125 1149.339844 L 1066.238281 630.378906 C 1081.238281 615.371094 1105.660156 615.371094 1120.671875 630.378906 L 1169.058594 678.78125 C 1184.070312 693.78125 1184.070312 718.199219 1169.058594 733.199219 L 650.105469 1252.160156 C 642.835938 1259.429688 633.171875 1263.429688 622.890625 1263.429688" style="fill: rgb(0, 170, 255);"/></g></svg>